<svg xmlns="http://www.w3.org/2000/svg" xmlns:svg="http://www.w3.org/2000/svg" xmlns:xlink="http://www.w3.org/1999/xlink" id="svg2" width="32" height="32" version="1.0"><defs id="defs4"><linearGradient id="linearGradient3681"><stop id="stop3683" offset="0" style="stop-color:#fff;stop-opacity:1"/><stop id="stop3685" offset="1" style="stop-color:#8e8787;stop-opacity:1"/></linearGradient><linearGradient id="linearGradient3651"><stop id="stop3653" offset="0" style="stop-color:#5f5f5f;stop-opacity:1"/><stop id="stop3655" offset="1" style="stop-color:#2b2b2b;stop-opacity:1"/></linearGradient><linearGradient id="linearGradient3212"><stop id="stop3214" offset="0" style="stop-color:#c41329;stop-opacity:1"/><stop style="stop-color:#c23840;stop-opacity:.49803922" id="stop3220" offset="1"/><stop id="stop3216" offset="1" style="stop-color:#ca1818;stop-opacity:0"/></linearGradient><radialGradient id="radialGradient3657" cx="13.625" cy="13.5" r="12.375" fx="13.625" fy="13.5" gradientUnits="userSpaceOnUse" xlink:href="#linearGradient3651"/><filter id="filter3659"><feGaussianBlur id="feGaussianBlur3661" stdDeviation=".022"/></filter><filter id="filter3673"><feGaussianBlur id="feGaussianBlur3675" stdDeviation=".122"/></filter><radialGradient id="radialGradient3687" cx="15.375" cy="15.094" r="2.044" fx="15.375" fy="15.094" gradientUnits="userSpaceOnUse" xlink:href="#linearGradient3681"/><filter id="filter3691"><feGaussianBlur id="feGaussianBlur3693" stdDeviation=".069"/></filter><filter id="filter3699"><feGaussianBlur id="feGaussianBlur3701" stdDeviation=".074"/></filter><filter id="filter3705"><feGaussianBlur id="feGaussianBlur3707" stdDeviation=".068"/></filter><radialGradient id="radialGradient3716" cx="15.375" cy="15.094" r="2.044" fx="15.375" fy="15.094" gradientUnits="userSpaceOnUse" xlink:href="#linearGradient3681"/><radialGradient id="radialGradient3743" cx="13.625" cy="13.5" r="12.375" fx="13.625" fy="13.5" gradientUnits="userSpaceOnUse" xlink:href="#linearGradient3651"/><radialGradient id="radialGradient3745" cx="15.375" cy="15.094" r="2.044" fx="15.375" fy="15.094" gradientUnits="userSpaceOnUse" xlink:href="#linearGradient3681"/></defs><metadata id="metadata7"/><g id="layer1"><g id="g3718" transform="matrix(0.96736045,0,0,0.96736045,0.3773592,0.90118444)"><path style="fill:#999;fill-opacity:1;stroke:#000;stroke-width:.6202445;stroke-linecap:round;stroke-linejoin:miter;stroke-miterlimit:4;stroke-opacity:1;stroke-dashoffset:0;stroke-dasharray:none" id="rect2830" d="m 27.164901,4.9169501 -2.015097,6.3488739 c 0,0 -2.264867,1.244493 -3.834878,-0.325518 C 19.744915,9.370295 20.816027,6.9320473 20.816027,6.9320473 l 6.348875,-2.0150967 z"/><use id="use3611" width="32" height="32" x="0" y="0" transform="matrix(-1,0,0,-1,32.386867,31.778977)" xlink:href="#use3609"/><use id="use3643" width="32" height="32" x="0" y="0" transform="matrix(0.70710678,-0.70710678,0.70710678,0.70710678,-6.4103043,16.125667)" xlink:href="#use3641"/><use id="use3609" width="32" height="32" x="0" y="0" transform="matrix(0,1,-1,0,32.088466,-0.29733132)" xlink:href="#use3607"/><use id="use3607" width="32" height="32" x="0" y="0" transform="matrix(0,1,1,0,0.297334,-0.297334)" xlink:href="#rect2830"/><path id="path3621" d="m 16,0.27275276 0.883199,6.05511614 c 0,0 -0.207947,1.1484921 -0.847865,1.1484921 -0.639918,0 -0.918533,-1.1484921 -0.918533,-1.1484921 L 16,0.27275276 z" transform="matrix(0.73327793,0.73327793,-0.70710678,0.70710678,15.320385,-6.7034265)" style="opacity:.8;fill:#fff;fill-opacity:1;stroke:none;filter:url(#filter3659)"/><use id="use3645" width="32" height="32" x="0" y="0" transform="matrix(0,-1,-1,0,32.259694,32.259694)" xlink:href="#use3643"/><use id="use3647" width="32" height="32" x="0" y="0" transform="matrix(0,1,1,0,0.39745396,-0.39745396)" xlink:href="#path3621"/><path style="fill:url(#radialGradient3743);fill-opacity:1;stroke:#000;stroke-width:.80709524;stroke-linecap:round;stroke-linejoin:round;stroke-miterlimit:4;stroke-opacity:1;stroke-dasharray:none;stroke-dashoffset:0" id="path2828" d="M 25.5,13.5 A 11.875,11.875 0 0 1 13.625,25.375 11.875,11.875 0 0 1 1.75,13.5 11.875,11.875 0 0 1 13.625,1.625 11.875,11.875 0 0 1 25.5,13.5 Z" transform="matrix(0.63397178,0.63397178,-0.63397178,0.63397178,16.113652,-1.3075311)"/><use id="use3613" width="32" height="32" x="0" y="0" transform="matrix(0.70710678,-0.70710678,0.70710678,0.70710678,-6.2056725,15.823183)" xlink:href="#use3611" style="fill:#999"/><use style="stroke-width:1.03374088;stroke-miterlimit:4;stroke-dasharray:none" id="use3615" width="32" height="32" x="0" y="0" transform="matrix(0,-1,-1,0,31.758024,31.794013)" xlink:href="#use3613"/><use id="use3617" width="32" height="32" x="0" y="0" transform="matrix(0,1,1,0,0.50551035,-0.54149953)" xlink:href="#use3615"/><use id="use3619" width="32" height="32" x="0" y="0" transform="matrix(0,-1,-1,0,31.758024,31.722035)" xlink:href="#use3617"/><use id="use3627" width="32" height="32" x="0" y="0" transform="matrix(0.70710678,0.70710678,-0.70710678,0.70710678,15.917788,-7.077033)" xlink:href="#path3621"/><use id="use3637" width="32" height="32" x="0" y="0" transform="matrix(0.70710678,-0.70710678,0.70710678,0.70710678,-6.5355335,15.732349)" xlink:href="#path3621"/><use id="use3639" width="32" height="32" x="0" y="0" transform="matrix(0,1,1,0,0.49599764,-0.54149953)" xlink:href="#use3637"/><use id="use3641" width="32" height="32" x="0" y="0" transform="matrix(0,-1,-1,0,31.758024,31.652094)" xlink:href="#use3639"/><g id="g3709" transform="translate(0.19289928,-0.11104621)"><path id="path3665" d="M 17.21875,15.09375 A 1.84375,1.84375 0 0 1 15.375,16.9375 1.84375,1.84375 0 0 1 13.53125,15.09375 1.84375,1.84375 0 0 1 15.375,13.25 a 1.84375,1.84375 0 0 1 1.84375,1.84375 z" transform="matrix(1.3975535,0,0,1.3975535,-5.4873853,-5.0943234)" style="fill:url(#radialGradient3745);fill-opacity:1;stroke:#000;stroke-width:.40000001;stroke-miterlimit:4;stroke-opacity:1;stroke-dasharray:none"/><path id="use3649" d="m 16,0.27275276 0.883199,6.05511614 c 0,0 -0.207947,1.1484921 -0.847865,1.1484921 -0.639918,0 -0.918533,-1.1484921 -0.918533,-1.1484921 L 16,0.27275276 z" transform="matrix(0.27343422,0.20920485,0.1797685,-0.23923929,11.529749,12.748568)" style="opacity:.8;fill:#fff;fill-opacity:1;stroke:none;filter:url(#filter3699)"/><path style="opacity:.6;fill:#fff;fill-opacity:1;stroke:none;filter:url(#filter3691)" id="path3689" d="m 16,0.27275276 4.18216,6.26136644 c 0,0 -1.586208,1.5352949 -3.832862,1.6324282 C 14.171773,8.260692 12.0228,6.6703041 12.0228,6.6703041 L 16,0.27275276 z" transform="matrix(0.27343422,0.20920485,0.1797685,-0.23923929,11.529749,12.748568)"/><path id="path3703" d="M 16,0.27275276 20.341292,5.963076 c 0,0 -1.986003,1.7820298 -3.769062,1.922034 C 14.720195,8.0305301 12.615654,6.9574595 12.615654,6.9574595 L 16,0.27275276 z" transform="matrix(-0.2801872,-0.20007017,-0.17177796,0.24503975,20.472878,19.131157)" style="opacity:.6;fill:#333;fill-opacity:1;stroke:none;filter:url(#filter3705)"/><path style="opacity:.8;fill:#333;fill-opacity:1;stroke:none;filter:url(#filter3673)" id="path3667" d="m 16,0.27275276 0.883199,6.05511614 c 0,0 -0.207947,1.1484921 -0.847865,1.1484921 -0.639918,0 -0.918533,-1.1484921 -0.918533,-1.1484921 L 16,0.27275276 z" transform="matrix(-0.2801872,-0.20007017,-0.17177796,0.24503975,20.472878,19.115532)"/></g></g></g></svg>